# Blender 4.1.1
# www.blender.org
mtllib busterSword.mtl
o 立方体
v -0.280870 2.820702 1.000000
v 0.000000 13.029110 1.000000
v -0.280870 2.820702 -0.716479
v -0.280870 9.957956 -0.716479
v 0.280870 2.820702 1.000000
v 0.280870 2.820702 -0.716479
v 0.280870 9.957956 -0.716479
v 0.000000 2.820702 -1.000000
v 0.000000 9.957956 -1.000000
v 0.000000 2.820702 1.000000
v 0.000000 9.957956 1.000000
v 0.280870 9.957956 1.000000
v -0.280870 9.957956 1.000000
v 0.000000 0.000016 0.159754
v 0.000000 3.290612 0.159754
v -0.031166 0.000016 0.156684
v -0.031166 3.290612 0.156684
v -0.061135 0.000016 0.147593
v -0.061135 3.290612 0.147593
v -0.088754 0.000016 0.132830
v -0.088754 3.290612 0.132830
v -0.112963 0.000016 0.112963
v -0.112963 3.290612 0.112963
v -0.132830 0.000016 0.088754
v -0.132830 3.290612 0.088754
v -0.147593 0.000016 0.061135
v -0.147593 3.290612 0.061135
v -0.156684 0.000016 0.031166
v -0.156684 3.290612 0.031166
v -0.159754 0.000016 0.000000
v -0.159754 3.290612 0.000000
v -0.156684 0.000016 -0.031166
v -0.156684 3.290612 -0.031166
v -0.147593 0.000016 -0.061135
v -0.147593 3.290612 -0.061135
v -0.132830 0.000016 -0.088754
v -0.132830 3.290612 -0.088754
v -0.112963 0.000016 -0.112963
v -0.112963 3.290612 -0.112963
v -0.088754 0.000016 -0.132830
v -0.088754 3.290612 -0.132830
v -0.061135 0.000016 -0.147593
v -0.061135 3.290612 -0.147593
v -0.031166 0.000016 -0.156684
v -0.031166 3.290612 -0.156684
v 0.000000 0.000016 -0.159754
v 0.000000 3.290612 -0.159754
v 0.031166 0.000016 -0.156684
v 0.031166 3.290612 -0.156684
v 0.061135 0.000016 -0.147593
v 0.061135 3.290612 -0.147593
v 0.088754 0.000016 -0.132830
v 0.088754 3.290612 -0.132830
v 0.112963 0.000016 -0.112963
v 0.112963 3.290612 -0.112963
v 0.132830 0.000016 -0.088754
v 0.132830 3.290612 -0.088754
v 0.147593 0.000016 -0.061135
v 0.147593 3.290612 -0.061135
v 0.156684 0.000016 -0.031166
v 0.156684 3.290612 -0.031166
v 0.159754 0.000016 0.000000
v 0.159754 3.290612 0.000000
v 0.156684 0.000016 0.031166
v 0.156684 3.290612 0.031166
v 0.147593 0.000016 0.061135
v 0.147593 3.290612 0.061135
v 0.132830 0.000016 0.088754
v 0.132830 3.290612 0.088754
v 0.112963 0.000016 0.112963
v 0.112963 3.290612 0.112963
v 0.088754 0.000016 0.132830
v 0.088754 3.290612 0.132830
v 0.061135 0.000016 0.147593
v 0.061135 3.290612 0.147593
v 0.031166 0.000016 0.156684
v 0.031166 3.290612 0.156684
v -0.463119 2.340149 1.648874
v -0.463119 3.092966 1.648874
v -0.463119 2.340149 -1.648874
v -0.463119 3.092966 -1.648874
v 0.463119 2.340149 1.648874
v 0.463119 3.092966 1.648874
v 0.463119 2.340149 -1.648874
v 0.463119 3.092966 -1.648874
vn -1.0000 -0.0000 -0.0000
vn 0.7104 -0.0000 -0.7038
vn 1.0000 -0.0000 -0.0000
vn -0.0000 -0.0000 1.0000
vn -0.0000 -1.0000 -0.0000
vn -0.0000 0.5457 -0.8380
vn -0.6458 0.4166 -0.6398
vn 0.6458 0.4166 -0.6398
vn -0.7104 -0.0000 -0.7038
vn 0.9958 0.0911 -0.0000
vn -0.9958 0.0911 -0.0000
vn -0.1951 -0.0000 0.9808
vn -0.3827 -0.0000 0.9239
vn -0.5556 -0.0000 0.8315
vn -0.7071 -0.0000 0.7071
vn -0.8315 -0.0000 0.5556
vn -0.9239 -0.0000 0.3827
vn -0.9808 -0.0000 0.1951
vn -0.9952 -0.0000 0.0980
vn -0.9952 -0.0000 -0.0980
vn -0.9808 -0.0000 -0.1951
vn -0.9239 -0.0000 -0.3827
vn -0.8315 -0.0000 -0.5556
vn -0.7071 -0.0000 -0.7071
vn -0.5556 -0.0000 -0.8315
vn -0.3827 -0.0000 -0.9239
vn -0.1951 -0.0000 -0.9808
vn -0.0000 -0.0000 -1.0000
vn 0.1951 -0.0000 -0.9808
vn 0.3827 -0.0000 -0.9239
vn 0.5556 -0.0000 -0.8315
vn 0.7071 -0.0000 -0.7071
vn 0.8315 -0.0000 -0.5556
vn 0.9239 -0.0000 -0.3827
vn 0.9808 -0.0000 -0.1951
vn 0.9952 -0.0000 -0.0980
vn 0.9952 -0.0000 0.0980
vn 0.9808 -0.0000 0.1951
vn 0.9239 -0.0000 0.3827
vn 0.8315 -0.0000 0.5556
vn 0.7071 -0.0000 0.7071
vn 0.5556 -0.0000 0.8315
vn 0.3827 -0.0000 0.9239
vn -0.0000 1.0000 -0.0000
vn 0.1951 -0.0000 0.9808
vt 0.375000 0.000000
vt 0.549785 0.000000
vt 0.625000 0.250000
vt 0.375000 0.250000
vt 0.375000 0.375000
vt 0.625000 0.375000
vt 0.625000 0.500000
vt 0.375000 0.500000
vt 0.549741 0.750000
vt 0.375000 0.750000
vt 0.375000 0.875000
vt 0.549769 0.875000
vt 0.549785 1.000000
vt 0.375000 1.000000
vt 0.250000 0.500000
vt 0.250000 0.750000
vt 0.750000 0.500000
vt 0.875000 0.500000
vt 0.750000 0.750000
vt 0.625000 0.750000
vt 0.125000 0.500000
vt 0.125000 0.750000
vt 0.625000 0.000000
vt 0.625000 1.000000
vt 0.625000 0.875000
vt 1.000000 0.500000
vt 1.000000 1.000000
vt 0.968750 1.000000
vt 0.968750 0.500000
vt 0.937500 1.000000
vt 0.937500 0.500000
vt 0.906250 1.000000
vt 0.906250 0.500000
vt 0.875000 1.000000
vt 0.843750 1.000000
vt 0.843750 0.500000
vt 0.812500 1.000000
vt 0.812500 0.500000
vt 0.781250 1.000000
vt 0.781250 0.500000
vt 0.750000 1.000000
vt 0.718750 1.000000
vt 0.718750 0.500000
vt 0.687500 1.000000
vt 0.687500 0.500000
vt 0.656250 1.000000
vt 0.656250 0.500000
vt 0.593750 1.000000
vt 0.593750 0.500000
vt 0.562500 1.000000
vt 0.562500 0.500000
vt 0.531250 1.000000
vt 0.531250 0.500000
vt 0.500000 1.000000
vt 0.500000 0.500000
vt 0.468750 1.000000
vt 0.468750 0.500000
vt 0.437500 1.000000
vt 0.437500 0.500000
vt 0.406250 1.000000
vt 0.406250 0.500000
vt 0.343750 1.000000
vt 0.343750 0.500000
vt 0.312500 1.000000
vt 0.312500 0.500000
vt 0.281250 1.000000
vt 0.281250 0.500000
vt 0.250000 1.000000
vt 0.218750 1.000000
vt 0.218750 0.500000
vt 0.187500 1.000000
vt 0.187500 0.500000
vt 0.156250 1.000000
vt 0.156250 0.500000
vt 0.125000 1.000000
vt 0.093750 1.000000
vt 0.093750 0.500000
vt 0.062500 1.000000
vt 0.062500 0.500000
vt 0.296822 0.485388
vt 0.250000 0.490000
vt 0.203178 0.485388
vt 0.158156 0.471731
vt 0.116663 0.449553
vt 0.080294 0.419706
vt 0.050447 0.383337
vt 0.028269 0.341844
vt 0.014612 0.296822
vt 0.010000 0.250000
vt 0.014612 0.203178
vt 0.028269 0.158156
vt 0.050447 0.116663
vt 0.080294 0.080294
vt 0.116663 0.050447
vt 0.158156 0.028269
vt 0.203178 0.014612
vt 0.250000 0.010000
vt 0.296822 0.014612
vt 0.341844 0.028269
vt 0.383337 0.050447
vt 0.419706 0.080294
vt 0.449553 0.116663
vt 0.471731 0.158156
vt 0.485388 0.203178
vt 0.490000 0.250000
vt 0.485388 0.296822
vt 0.471731 0.341844
vt 0.449553 0.383337
vt 0.419706 0.419706
vt 0.383337 0.449553
vt 0.341844 0.471731
vt 0.031250 1.000000
vt 0.031250 0.500000
vt 0.000000 1.000000
vt 0.000000 0.500000
vt 0.750000 0.490000
vt 0.796822 0.485388
vt 0.841844 0.471731
vt 0.883337 0.449553
vt 0.919706 0.419706
vt 0.949553 0.383337
vt 0.971731 0.341844
vt 0.985388 0.296822
vt 0.990000 0.250000
vt 0.985388 0.203178
vt 0.971731 0.158156
vt 0.949553 0.116663
vt 0.919706 0.080294
vt 0.883337 0.050447
vt 0.841844 0.028269
vt 0.796822 0.014612
vt 0.750000 0.010000
vt 0.703178 0.014612
vt 0.658156 0.028269
vt 0.616663 0.050447
vt 0.580294 0.080294
vt 0.550447 0.116663
vt 0.528269 0.158156
vt 0.514612 0.203178
vt 0.510000 0.250000
vt 0.514612 0.296822
vt 0.528269 0.341844
vt 0.550447 0.383337
vt 0.580294 0.419706
vt 0.616663 0.449553
vt 0.658156 0.471731
vt 0.703178 0.485388
vt 0.875000 0.750000
s 1
f 1/1/1 13/2/1 4/3/1 3/4/1
f 8/5/2 9/6/2 7/7/2 6/8/2
f 6/8/3 7/7/3 12/9/3 5/10/3
f 10/11/4 11/12/4 13/13/4 1/14/4
f 8/15/5 6/8/5 5/10/5 10/16/5
f 9/17/6 4/18/7 2/19/6
f 7/7/8 9/17/6 2/20/6
f 3/21/5 8/15/5 10/16/5 1/22/5
f 5/10/4 12/9/4 11/12/4 10/11/4
f 3/4/9 4/3/9 9/6/9 8/5/9
f 12/9/10 7/7/10 2/20/10
f 4/3/11 13/2/11 2/23/11
f 13/13/4 11/12/4 2/24/4
f 11/12/4 12/9/4 2/25/4
f 14/26/4 15/27/4 17/28/12 16/29/12
f 16/29/12 17/28/12 19/30/13 18/31/13
f 18/31/13 19/30/13 21/32/14 20/33/14
f 20/33/14 21/32/14 23/34/15 22/18/15
f 22/18/15 23/34/15 25/35/16 24/36/16
f 24/36/16 25/35/16 27/37/17 26/38/17
f 26/38/17 27/37/17 29/39/18 28/40/18
f 28/40/18 29/39/18 31/41/19 30/17/19
f 30/17/20 31/41/20 33/42/21 32/43/21
f 32/43/21 33/42/21 35/44/22 34/45/22
f 34/45/22 35/44/22 37/46/23 36/47/23
f 36/47/23 37/46/23 39/24/24 38/7/24
f 38/7/24 39/24/24 41/48/25 40/49/25
f 40/49/25 41/48/25 43/50/26 42/51/26
f 42/51/26 43/50/26 45/52/27 44/53/27
f 44/53/27 45/52/27 47/54/28 46/55/28
f 46/55/28 47/54/28 49/56/29 48/57/29
f 48/57/29 49/56/29 51/58/30 50/59/30
f 50/59/30 51/58/30 53/60/31 52/61/31
f 52/61/31 53/60/31 55/14/32 54/8/32
f 54/8/32 55/14/32 57/62/33 56/63/33
f 56/63/33 57/62/33 59/64/34 58/65/34
f 58/65/34 59/64/34 61/66/35 60/67/35
f 60/67/35 61/66/35 63/68/36 62/15/36
f 62/15/37 63/68/37 65/69/38 64/70/38
f 64/70/38 65/69/38 67/71/39 66/72/39
f 66/72/39 67/71/39 69/73/40 68/74/40
f 68/74/40 69/73/40 71/75/41 70/21/41
f 70/21/41 71/75/41 73/76/42 72/77/42
f 72/77/42 73/76/42 75/78/43 74/79/43
f 17/80/44 15/81/44 77/82/44 75/83/44 73/84/44 71/85/44 69/86/44 67/87/44 65/88/44 63/89/44 61/90/44 59/91/44 57/92/44 55/93/44 53/94/44 51/95/44 49/96/44 47/97/44 45/98/44 43/99/44 41/100/44 39/101/44 37/102/44 35/103/44 33/104/44 31/105/44 29/106/44 27/107/44 25/108/44 23/109/44 21/110/44 19/111/44
f 74/79/43 75/78/43 77/112/45 76/113/45
f 76/113/45 77/112/45 15/114/4 14/115/4
f 14/116/5 16/117/5 18/118/5 20/119/5 22/120/5 24/121/5 26/122/5 28/123/5 30/124/5 32/125/5 34/126/5 36/127/5 38/128/5 40/129/5 42/130/5 44/131/5 46/132/5 48/133/5 50/134/5 52/135/5 54/136/5 56/137/5 58/138/5 60/139/5 62/140/5 64/141/5 66/142/5 68/143/5 70/144/5 72/145/5 74/146/5 76/147/5
f 78/1/1 79/23/1 81/3/1 80/4/1
f 80/4/28 81/3/28 85/7/28 84/8/28
f 84/8/3 85/7/3 83/20/3 82/10/3
f 82/10/4 83/20/4 79/24/4 78/14/4
f 80/21/5 84/8/5 82/10/5 78/22/5
f 85/7/44 81/18/44 79/148/44 83/20/44
